<?xml version="1.0" encoding="UTF-8"?>
<svg width="400px" height="160px" viewBox="0 0 400 160" version="1.1" xmlns="http://www.w3.org/2000/svg" xmlns:xlink="http://www.w3.org/1999/xlink">
    <!-- Generator: Sketch 55.2 (78181) - https://sketchapp.com -->
    <title>Client Logo / Airbnb</title>
    <desc>Created with Sketch.</desc>
    <g id="Client-Logo-/-Airbnb" stroke="none" stroke-width="1" fill="none" fill-rule="evenodd">
        <path d="M206.502096,60.3513514 C206.502096,63.2702703 204.155702,65.6216216 201.242939,65.6216216 C198.330175,65.6216216 195.983782,63.2702703 195.983782,60.3513514 C195.983782,57.4324324 198.249265,55.0810811 201.242939,55.0810811 C204.236613,55.1621622 206.502096,57.5135135 206.502096,60.3513514 Z M184.818187,70.972973 C184.818187,71.4594595 184.818187,72.2702703 184.818187,72.2702703 C184.818187,72.2702703 182.309973,69.027027 176.969906,69.027027 C168.150704,69.027027 161.273345,75.7567568 161.273345,85.0810811 C161.273345,94.3243243 168.069794,101.135135 176.969906,101.135135 C182.390883,101.135135 184.818187,97.8108108 184.818187,97.8108108 L184.818187,99.1891892 C184.818187,99.8378378 185.303647,100.324324 185.950928,100.324324 L192.504647,100.324324 L192.504647,69.8378378 C192.504647,69.8378378 186.517299,69.8378378 185.950928,69.8378378 C185.303647,69.8378378 184.818187,70.4054054 184.818187,70.972973 Z M184.818187,90.5135135 C183.604535,92.2972973 181.177232,93.8378378 178.264468,93.8378378 C173.086221,93.8378378 169.121625,90.5945946 169.121625,85.0810811 C169.121625,79.5675676 173.086221,76.3243243 178.264468,76.3243243 C181.096322,76.3243243 183.685445,77.9459459 184.818187,79.6486486 L184.818187,90.5135135 Z M197.359253,69.8378378 L205.126624,69.8378378 L205.126624,100.324324 L197.359253,100.324324 L197.359253,69.8378378 Z M313.384349,69.027027 C308.044282,69.027027 305.536069,72.2702703 305.536069,72.2702703 L305.536069,55.1621622 L297.768698,55.1621622 L297.768698,100.324324 C297.768698,100.324324 303.756046,100.324324 304.322417,100.324324 C304.969698,100.324324 305.455158,99.7567568 305.455158,99.1891892 L305.455158,97.8108108 L305.455158,97.8108108 C305.455158,97.8108108 307.963372,101.135135 313.303439,101.135135 C322.122641,101.135135 329,94.3243243 329,85.0810811 C329,75.8378378 322.122641,69.027027 313.384349,69.027027 Z M312.089787,93.7567568 C309.096113,93.7567568 306.74972,92.2162162 305.536069,90.4324324 L305.536069,79.5675676 C306.74972,77.9459459 309.338844,76.2432432 312.089787,76.2432432 C317.268034,76.2432432 321.23263,79.4864865 321.23263,85 C321.23263,90.5135135 317.268034,93.7567568 312.089787,93.7567568 Z M293.723193,82.2432432 L293.723193,100.405405 L285.955822,100.405405 L285.955822,83.1351351 C285.955822,78.1081081 284.33762,76.0810811 279.968474,76.0810811 C277.622081,76.0810811 275.194778,77.2972973 273.657486,79.0810811 L273.657486,100.324324 L265.890115,100.324324 L265.890115,69.8378378 L272.039284,69.8378378 C272.686564,69.8378378 273.172025,70.4054054 273.172025,70.972973 L273.172025,72.2702703 C275.437508,69.9189189 278.431182,69.027027 281.424856,69.027027 C284.823081,69.027027 287.654935,70 289.920418,71.9459459 C292.671361,74.2162162 293.723193,77.1351351 293.723193,82.2432432 Z M247.03806,69.027027 C241.697993,69.027027 239.18978,72.2702703 239.18978,72.2702703 L239.18978,55.1621622 L231.422409,55.1621622 L231.422409,100.324324 C231.422409,100.324324 237.409757,100.324324 237.976128,100.324324 C238.623409,100.324324 239.108869,99.7567568 239.108869,99.1891892 L239.108869,97.8108108 L239.108869,97.8108108 C239.108869,97.8108108 241.617083,101.135135 246.95715,101.135135 C255.776352,101.135135 262.653711,94.3243243 262.653711,85.0810811 C262.734621,75.8378378 255.857262,69.027027 247.03806,69.027027 Z M245.743498,93.7567568 C242.749824,93.7567568 240.403431,92.2162162 239.18978,90.4324324 L239.18978,79.5675676 C240.403431,77.9459459 242.992555,76.2432432 245.743498,76.2432432 C250.921745,76.2432432 254.886341,79.4864865 254.886341,85 C254.886341,90.5135135 250.921745,93.7567568 245.743498,93.7567568 Z M224.70687,69.027027 C227.053263,69.027027 228.266915,69.4324324 228.266915,69.4324324 L228.266915,76.6486486 C228.266915,76.6486486 221.794106,74.4594595 217.748601,79.0810811 L217.748601,100.405405 L209.98123,100.405405 L209.98123,69.8378378 C209.98123,69.8378378 215.968578,69.8378378 216.534949,69.8378378 C217.18223,69.8378378 217.667691,70.4054054 217.667691,70.972973 L217.667691,72.2702703 C219.124073,70.5675676 222.279567,69.027027 224.70687,69.027027 Z M144.039492,97.5675676 C143.634941,96.5945946 143.230391,95.5405405 142.82584,94.6486486 C142.178559,93.1891892 141.531278,91.8108108 140.964908,90.5135135 L140.883998,90.4324324 C135.3012,78.2702703 129.313852,65.9459459 123.002864,53.7837838 L122.760133,53.2972973 C122.112852,52.0810811 121.465572,50.7837838 120.818291,49.4864865 C120.00919,48.027027 119.200089,46.4864865 117.905527,45.027027 C115.316403,41.7837838 111.594538,40 107.629943,40 C103.584438,40 99.9434827,41.7837838 97.2734491,44.8648649 C96.0597975,46.3243243 95.1697863,47.8648649 94.3606852,49.3243243 C93.7134043,50.6216216 93.0661234,51.9189189 92.4188426,53.1351351 L92.1761123,53.6216216 C85.9460339,65.7837838 79.8777758,78.1081081 74.2949783,90.2702703 L74.2140682,90.4324324 C73.6476974,91.7297297 73.0004165,93.1081081 72.3531357,94.5675676 C71.9485851,95.4594595 71.5440346,96.4324324 71.139484,97.4864865 C70.0876526,100.486486 69.7640122,103.324324 70.1685627,106.243243 C71.0585739,112.324324 75.1040793,117.432432 80.6868768,119.702703 C82.7905397,120.594595 84.9751126,121 87.2405956,121 C87.8878765,121 88.6969776,120.918919 89.3442585,120.837838 C92.014292,120.513514 94.7652357,119.621622 97.4352693,118.081081 C100.752584,116.216216 103.908078,113.540541 107.468123,109.648649 C111.028168,113.540541 114.264572,116.216216 117.500976,118.081081 C120.17101,119.621622 122.921954,120.513514 125.591987,120.837838 C126.239268,120.918919 127.048369,121 127.69565,121 C129.961133,121 132.226616,120.594595 134.249369,119.702703 C139.913076,117.432432 143.877672,112.243243 144.767683,106.243243 C145.414964,103.405405 145.091323,100.567568 144.039492,97.5675676 Z M107.549033,101.783784 C103.179887,96.2702703 100.348033,91.0810811 99.3771119,86.7027027 C98.9725614,84.8378378 98.8916513,83.2162162 99.1343816,81.7567568 C99.2962018,80.4594595 99.7816625,79.3243243 100.428943,78.3513514 C101.966235,76.1621622 104.555359,74.7837838 107.549033,74.7837838 C110.542707,74.7837838 113.21274,76.0810811 114.669122,78.3513514 C115.316403,79.3243243 115.801864,80.4594595 115.963684,81.7567568 C116.206414,83.2162162 116.125504,84.9189189 115.720954,86.7027027 C114.750033,91 111.918179,96.1891892 107.549033,101.783784 Z M139.832166,105.594595 C139.265795,109.810811 136.433942,113.459459 132.469346,115.081081 C130.527504,115.891892 128.423841,116.135135 126.320178,115.891892 C124.297425,115.648649 122.274673,115 120.17101,113.783784 C117.258246,112.162162 114.345482,109.648649 110.947257,105.918919 C116.287325,99.3513514 119.523729,93.3513514 120.737381,88 C121.303751,85.4864865 121.384661,83.2162162 121.141931,81.1081081 C120.818291,79.0810811 120.0901,77.2162162 118.957358,75.5945946 C116.449145,71.9459459 112.241819,69.8378378 107.549033,69.8378378 C102.856247,69.8378378 98.6489209,72.027027 96.1407076,75.5945946 C95.0079661,77.2162162 94.2797751,79.0810811 93.9561346,81.1081081 C93.6324942,83.2162162 93.7134043,85.5675676 94.3606852,88 C95.5743368,93.3513514 98.8916513,99.4324324 104.150808,106 C100.833494,109.72973 97.8398199,112.243243 94.9270559,113.864865 C92.8233931,115.081081 90.8006404,115.72973 88.7778877,115.972973 C86.5933148,116.216216 84.4896519,115.891892 82.6287194,115.162162 C78.6641241,113.540541 75.8322703,109.891892 75.2658996,105.675676 C75.0231692,103.648649 75.1849895,101.621622 75.9940905,99.3513514 C76.2368209,98.5405405 76.6413714,97.7297297 77.045922,96.7567568 C77.6122927,95.4594595 78.2595736,94.0810811 78.9068545,92.7027027 L78.9877646,92.5405405 C84.570562,80.4594595 90.5579101,68.1351351 96.7879884,56.1351351 L97.0307188,55.6486486 C97.6779996,54.4324324 98.3252805,53.1351351 98.9725614,51.9189189 C99.6198422,50.6216216 100.348033,49.4054054 101.238044,48.3513514 C102.937157,46.4054054 105.20264,45.3513514 107.710853,45.3513514 C110.219066,45.3513514 112.48455,46.4054054 114.183662,48.3513514 C115.073673,49.4054054 115.801864,50.6216216 116.449145,51.9189189 C117.096426,53.1351351 117.743707,54.4324324 118.390987,55.6486486 L118.633718,56.1351351 C124.782886,68.2162162 130.770234,80.5405405 136.353032,92.6216216 L136.353032,92.7027027 C137.000312,94 137.566683,95.4594595 138.213964,96.7567568 C138.618515,97.7297297 139.023065,98.5405405 139.265795,99.3513514 C139.913076,101.459459 140.155807,103.486486 139.832166,105.594595 Z" id="Shape" fill="#000000"></path>
    </g>
</svg>