<?xml version="1.0" encoding="UTF-8"?>
<svg width="400px" height="160px" viewBox="0 0 400 160" version="1.1" xmlns="http://www.w3.org/2000/svg" xmlns:xlink="http://www.w3.org/1999/xlink">
    <!-- Generator: Sketch 55.2 (78181) - https://sketchapp.com -->
    <title>Client Logo / Deliveroo</title>
    <desc>Created with Sketch.</desc>
    <g id="Client-Logo-/-Deliveroo" stroke="none" stroke-width="1" fill="none" fill-rule="evenodd">
        <path d="M156.998981,101.823757 L164.369804,101.823757 L163.119397,96.098207 L163.119397,62.0739609 L156.077628,62.0739609 L156.077628,77.6053382 C153.971679,75.1703341 151.010187,73.7224939 147.58802,73.7224939 C140.546251,73.7224939 135.083945,79.5796659 135.083945,88.0692747 C135.083945,96.6246944 140.546251,102.416055 147.58802,102.416055 C151.075998,102.416055 154.103301,100.902404 156.20925,98.3357783 L156.998981,101.823757 L156.998981,101.823757 Z M296.25489,81.3565607 C297.70273,81.3565607 299.018949,81.7514262 300.203545,82.6069682 L303.559902,75.1045232 C301.98044,74.1173594 300.203545,73.7224939 298.42665,73.7224939 C295.267726,73.7224939 292.569478,75.1703341 290.924205,77.8685819 L290.200285,74.3806031 L282.961084,74.3806031 L284.145681,79.7770986 L284.145681,101.889568 L291.187449,101.889568 L291.187449,84.3180522 C292.108802,82.4753464 293.885697,81.3565607 296.25489,81.3565607 L296.25489,81.3565607 L296.25489,81.3565607 L296.25489,81.3565607 Z M316.853708,95.0452323 C312.773431,95.0452323 309.746129,92.3469845 309.746129,88.1350856 C309.746129,83.8573757 312.773431,81.2249389 316.853708,81.2249389 C320.999796,81.2249389 323.961288,83.8573757 323.961288,88.1350856 C323.961288,92.2811736 320.999796,95.0452323 316.853708,95.0452323 L316.853708,95.0452323 Z M141.92828,88.0692747 C141.92828,83.7915648 144.955583,81.159128 149.03586,81.159128 C153.181948,81.159128 156.143439,83.7915648 156.143439,88.0692747 C156.143439,92.2811736 153.181948,94.9794214 149.03586,94.9794214 C144.955583,95.0452323 141.92828,92.2811736 141.92828,88.0692747 Z M348.113896,95.0452323 C344.033619,95.0452323 341.006316,92.3469845 341.006316,88.1350856 C341.006316,83.8573757 344.033619,81.2249389 348.113896,81.2249389 C352.259984,81.2249389 355.221475,83.8573757 355.221475,88.1350856 C355.155664,92.2811736 352.194173,95.0452323 348.113896,95.0452323 Z M181.480644,80.7642624 C185.100244,80.7642624 187.469438,82.4753464 188.259169,85.6342706 L174.702119,85.6342706 C175.426039,82.4095355 177.861043,80.7642624 181.480644,80.7642624 L181.480644,80.7642624 Z M265.652812,80.7642624 C269.272412,80.7642624 271.641606,82.4753464 272.431337,85.6342706 L258.874287,85.6342706 C259.729829,82.4095355 262.099022,80.7642624 265.652812,80.7642624 L265.652812,80.7642624 Z M231.299511,101.823757 L242.618989,101.823757 L249.989813,74.2489813 L242.289935,74.2489813 L236.95925,96.6246944 L231.562755,74.3147922 L223.994499,74.3147922 L231.299511,101.823757 L231.299511,101.823757 Z M213.201508,101.823757 L220.243276,101.823757 L220.243276,74.2489813 L213.201508,74.2489813 L213.201508,101.823757 Z M182.533619,102.350244 C186.482274,102.350244 190.299307,101.231459 193.524042,99.1913203 L190.825795,93.1367156 C188.32498,94.5187449 185.429299,95.242665 182.59943,95.242665 C178.914018,95.242665 176.347392,93.7948248 175.162795,91.096577 L195.037694,91.096577 C195.235126,90.0436023 195.366748,89.1222494 195.366748,87.8718419 C195.366748,79.3164222 189.443765,73.656683 181.612266,73.656683 C173.649144,73.656683 167.857783,79.448044 167.857783,88.0034637 C167.791972,96.7563162 173.583333,102.350244 182.533619,102.350244 L182.533619,102.350244 Z M362,88.0692747 C362,79.5138549 356.077017,73.7224939 348.113896,73.7224939 C340.084963,73.7224939 334.227791,79.5796659 334.227791,88.0692747 C334.227791,96.5588835 340.150774,102.416055 348.113896,102.416055 C356.077017,102.416055 362,96.6246944 362,88.0692747 L362,88.0692747 Z M266.639976,102.416055 C270.588631,102.416055 274.405664,101.363081 277.630399,99.2571312 L274.932152,93.2025265 C272.431337,94.5845558 269.535656,95.308476 266.705786,95.308476 C263.020375,95.308476 260.453749,93.8606357 259.269152,91.1623879 L279.144051,91.1623879 C279.341483,90.1094132 279.473105,89.1880603 279.473105,87.9376528 C279.473105,79.3822331 273.550122,73.7224939 265.718623,73.7224939 C257.755501,73.7224939 251.96414,79.5138549 251.96414,88.0692747 C251.96414,96.8879381 257.68969,102.416055 266.639976,102.416055 L266.639976,102.416055 L266.639976,102.416055 Z M316.853708,102.416055 C324.882641,102.416055 330.739813,96.5588835 330.739813,88.0692747 C330.739813,79.5796659 324.81683,73.7224939 316.853708,73.7224939 C308.824776,73.7224939 302.967604,79.5796659 302.967604,88.0692747 C302.967604,96.5588835 308.824776,102.416055 316.853708,102.416055 L316.853708,102.416055 Z M199.841891,101.823757 L206.883659,101.823757 L206.883659,62.0739609 L199.841891,62.0739609 L199.841891,101.823757 L199.841891,101.823757 Z M216.755297,70.4977588 C219.190302,70.4977588 221.164629,68.5234311 221.164629,66.0226161 C221.164629,63.5218011 219.256112,61.5474735 216.755297,61.5474735 C214.254482,61.5474735 212.280155,63.5218011 212.280155,66.0226161 C212.280155,68.5234311 214.188672,70.4977588 216.755297,70.4977588 L216.755297,70.4977588 Z M95.7290139,37 L91.7145477,75.1703341 L84.8702119,42.9887938 L63.2842298,47.5297474 L70.0627547,79.7112877 L39,86.2923798 L44.5281174,111.958639 L99.2169927,123.607172 L111.721068,95.6375306 L117.644051,39.3033822 L95.7290139,37 L95.7290139,37 L95.7290139,37 Z M78.4207416,92.4127954 C77.301956,93.4657702 75.8541157,93.3341483 74.2088427,92.807661 C72.6293806,92.2811736 71.9712714,90.4384678 72.4977588,88.0692747 C72.9584352,86.3581907 74.9985738,86.094947 76.1173594,86.094947 C76.5122249,86.094947 76.9070905,86.1607579 77.301956,86.3581907 C78.0258761,86.6872453 79.2762836,87.4111654 79.5395273,88.4641402 C79.9343928,90.0436023 79.5395273,91.3598207 78.4207416,92.4127954 L78.4207416,92.4127954 L78.4207416,92.4127954 L78.4207416,92.4127954 Z M94.2811736,94.1238794 C93.4256316,95.5717196 91.3196822,95.7691524 89.1479218,94.7161777 C87.7000815,93.9922575 87.7000815,92.2811736 87.8975143,91.1623879 C87.9633252,90.5700896 88.2265689,89.9777914 88.6214344,89.5171149 C89.1479218,88.8590057 90.0034637,88.0034637 90.9248166,88.0034637 C92.5700896,87.9376528 93.8863081,88.6615729 94.6760391,89.9777914 C95.4657702,91.2940098 95.0709046,92.74185 94.2811736,94.1238794 L94.2811736,94.1238794 L94.2811736,94.1238794 Z" id="Shape" fill="#000000"></path>
    </g>
</svg>