<?xml version="1.0" encoding="utf-8"?>
<!-- Generator: Adobe Illustrator 24.0.3, SVG Export Plug-In . SVG Version: 6.00 Build 0)  -->
<svg version="1.1" xmlns="http://www.w3.org/2000/svg" xmlns:xlink="http://www.w3.org/1999/xlink" x="0px" y="0px"
	 viewBox="0 0 400 160" style="enable-background:new 0 0 400 160;" xml:space="preserve">
<g id="Layer_1">
	<g id="Layer_1_1_">
		<title>Client Logo / Premier League Inverse</title>
		<desc>Created with Sketch.</desc>
	</g>
	<g>
		<g>
			<path d="M152.3,88.8c-1.7,2.5-2.5,3-6.6,3c-5,0-5.1-0.5-5.1-5.1v-9.8h1.4c3.7,0,4.4,0.3,5,1.5c0.7,1.5,1.1,2.5,1.6,4.1h1.5V69.4
				h-1.5c-0.5,1.6-0.9,2.6-1.6,3.9c-0.6,1.1-1.4,1.5-5,1.5h-1.4v-13c0.8-0.2,2-0.5,4.7-0.5c3.5,0,4.6,0.2,6.2,2.6
				c0.8,1.1,1.6,2.6,2.9,5.4h1.6L155.5,59h-27.7v1.4l1.7,0.4c1.5,0.4,1.9,0.6,1.9,3.7v24.1c0,3.1-0.4,3.3-1.9,3.7l-1.7,0.4l0.1,1.4
				h28.7l0.7-12h-1.6C154.2,85.3,153.3,87.4,152.3,88.8z"/>
			<path d="M186.1,69.1v-1.3h-9.4v1.3l1.4,0.4c1.1,0.3,1.6,0.8,1.6,1.9c0,0.7-0.2,1.6-0.7,2.8l-4.1,11.7h-0.3l-4.2-11.7
				c-0.4-1.1-0.7-2-0.7-2.7c0-1.2,0.5-1.7,1.6-2l1.4-0.4v-1.3h-15.2v1.3l1,0.3c1.3,0.4,1.8,1.1,3,4l8.3,20.6h4.3L182,74
				c1.2-3.3,1.8-4.1,3.1-4.6L186.1,69.1z"/>
			<path d="M198.1,67.2c-6.7,0-13.2,4.9-13.2,13.7c0,8.6,4.4,13.8,13.2,13.9c5.1,0,8.9-2.7,10.7-4.6v-1.7c-1.9,1-4.3,1.9-7.4,1.9
				c-5.2,0-8.3-2.3-8.5-10.5h16.7C209.4,70.6,205,67.2,198.1,67.2z M192.9,77.8c0.2-6.3,2.3-8.8,4.8-8.8c3,0,3.8,2.3,3.8,8.3
				L192.9,77.8z"/>
			<path d="M230.6,67c-3.4,0-6.3,2.5-7.7,4V71h-0.2l0.1-3.5l-0.6-0.4l-10.6,1.2v1l1.7,1.1c1.4,1,1.7,1.1,1.7,3.3v15.7
				c0,2.1-0.2,2.4-1.9,2.9l-1.3,0.4v1.4h14.6v-1.4l-1.7-0.4c-1.5-0.3-1.7-0.5-1.7-2.9V73.1c0.7-0.6,1.7-1.3,2.7-1.3
				c0.5,0,1.1,0.2,1.4,0.7c0.6,1.4,2,2.4,3.6,2.4c2.2,0,3.9-1.7,3.9-3.9S232.8,67,230.6,67z"/>
			<path d="M263.5,89.4V73.9c0-4.6-2.3-6.8-6.6-6.8c-3.7,0-7,1.7-9.7,3.6H247l0.1-3.2l-0.6-0.4l-10.6,1.2v1l1.7,1.1
				c1.4,1,1.7,1.1,1.7,3.3v15.7c0,2.1-0.2,2.4-1.9,2.9l-1.3,0.4h0.1v1.4h14.1v-1.4l-1.2-0.3c-1.5-0.4-1.7-0.5-1.7-2.9v-17
				c1.1-0.3,2.9-0.7,4.7-0.7c2.4,0,3.5,1,3.5,4v13.6c0,2.4-0.2,2.5-1.7,2.9l-1.2,0.3V94h14.1v-1.4l-1.3-0.4
				C263.7,91.9,263.5,91.6,263.5,89.4z"/>
			<path d="M281.3,67.2c-6.8,0-13.7,4.1-13.7,13.8c0,9.3,6.3,13.7,13.7,13.7c7,0,13.7-4.2,13.7-13.9C295,71.5,288.6,67.2,281.3,67.2
				z M281.5,92.7c-3.7,0-5.4-2.3-5.4-12.6c0-8.7,1.9-11,5.1-11c3.5,0,5.4,1.9,5.4,12.1C286.6,90.9,284.5,92.7,281.5,92.7z"/>
			<path d="M307.5,87.2V70.8h6l0.7-3h-6.7v-6.8h-2.9c-1.4,4-4.5,7-8.4,8.5v1.2h3.2v16.9c0,5,2.5,7,7,7c4.2,0,6.8-1.8,8-3v-1.4
				c-0.9,0.2-2.4,0.5-3.6,0.5C308.3,90.7,307.5,89.7,307.5,87.2z"/>
			<path d="M323.4,79.8h16.7c-0.2-9.2-4.5-12.6-11.5-12.6c-6.7,0-13.2,4.9-13.2,13.7c0,8.6,4.3,13.8,13.2,13.9
				c5.1,0,8.9-2.7,10.7-4.6v-1.7c-1.9,1-4.3,1.9-7.4,1.9C326.7,90.3,323.6,88.1,323.4,79.8z M328.2,69c3,0,3.8,2.3,3.8,8.3l-8.6,0.5
				C323.6,71.5,325.6,69,328.2,69z"/>
		</g>
		<g>
			<path d="M63.1,66c0.8-0.1,1.9-0.1,3.8-0.1l6.6,0c0.6,0,1.6-0.1,2.3-0.7c0.6-0.7,0.7-1.7,0.7-2.3l0-6.8c0-1.9,0-3,0.1-3.8
				c0.1-0.4,0.3-0.9,0.4-1.2c0-0.1,0-0.1-0.1-0.1l-15,15.2c-0.1,0.1,0,0.1,0.1,0.1C62.2,66.3,62.7,66.1,63.1,66z"/>
			<path d="M99.7,55c-3-0.5-8.9-1.5-8.9-1.5s-0.7-3.2-3.8-3.9c-0.6-0.2-0.9-0.2-1.4-0.3c-0.6-0.1-1.2-0.1-1.7-0.1
				c-0.5,0-1.2,0-1.2,0c-2.5,0-4.2,1.5-4.4,3.5c0,0.1,0,0.2,0,0.3c0,1.2,0,10.5,0,10.5c0,1.4-0.2,2.6-1.1,3.4
				c-0.7,0.6-1.7,1.1-3.5,1.1c0,0-8.9,0-10.1,0c-0.1,0-0.2,0-0.3,0c-1.9,0.2-3.5,2-3.5,4.4c0.1,0.6,0.1,1.3,0.3,2.1
				c0.4,2.4,1,5,1.3,6.4c1.3,5.9,3.9,8,3.9,8c3.8,3.9,9.3,5.5,14.4,5.2c0.2,0,0.7-0.1,1.1-0.2c0.5-0.1,0.9-0.3,1.2-0.4
				c3.2-1.9,4.8-9.1,4.8-9.1c0.4,4.8,5.7,6.4,7.9,6.7c0.1,0,0.8,0.1,1.5,0.3c0.6,0.2,1.3,0.3,1.7,0.5c2.8,1.2,4.9,4,4.9,7.1
				c0,3.5-2.8,6.3-6.3,6.3c-1.3,0-2.6-0.5-3.5-1.4c-0.5-0.5-0.8-1.2-0.8-2c0-0.7,0.4-1.4,0.9-1.8c0.5-0.4,1.4-0.5,1.7-0.6
				c0.3,0,0.6-0.2,0.9-0.3c0.7-0.4,1.2-1.2,1.2-2c0-1.3-1-2.3-2.3-2.3c-4.3,0-7.8,3.5-7.8,7.7c0,1,0.2,2,0.5,2.8
				c0.4,0.9,1.3,2.4,3,3.5c1.4,0.9,3.5,1.9,6.3,1.9c0,0,13.1,0.8,15.3-15c0.2,0,2-16.2-1.1-32.9C109.5,56,102.6,55.5,99.7,55z
				 M105.2,78.7c-0.1,0.1-0.2,0.2-0.3,0.2c-0.7,0.1-1.7,0-3.2-0.1c-1.5-0.2-2.5-0.3-3.1-0.6c-0.1,0-0.2-0.1-0.3-0.3
				c-0.1-0.2,0-0.5,0.1-0.7c0.5-1.3,2-2,3.7-1.8c1.7,0.2,2.9,1.2,3.1,2.6C105.3,78.3,105.3,78.6,105.2,78.7z"/>
		</g>
	</g>
</g>
<g id="Artwork_1_">
</g>
</svg>
