<?xml version="1.0" encoding="UTF-8"?>
<svg width="400px" height="160px" viewBox="0 0 400 160" version="1.1" xmlns="http://www.w3.org/2000/svg" xmlns:xlink="http://www.w3.org/1999/xlink">
    <!-- Generator: Sketch 55.2 (78181) - https://sketchapp.com -->
    <title>Client Logo / Logitech</title>
    <desc>Created with Sketch.</desc>
    <g id="Client-Logo-/-Logitech" stroke="none" stroke-width="1" fill="none" fill-rule="evenodd">
        <path d="M82,95.2218016 L82,46.0402664 L90.680406,46.0402664 L90.680406,95.2218016 L82,95.2218016 Z M112.900362,59.5424255 C124.476344,59.5424255 131.668596,68.4992959 131.668596,77.7835857 C131.668596,88.8244217 122.989011,96.1813032 112.986851,96.1813032 C102.447809,96.1813032 94.069226,88.6865239 94.069226,77.8070916 C94.069226,68.0590063 101.770938,59.5424255 112.900362,59.5424255 Z M112.798147,67.8765552 C107.279999,67.8765552 102.891161,72.2584736 102.891161,77.854033 C102.891161,82.9589198 106.778471,87.8315108 112.9554,87.8315108 C118.182941,87.8315108 122.909562,83.6164276 122.909562,77.8383937 C122.909562,72.3888327 118.622485,67.8765552 112.798147,67.8765552 Z M153.478158,59.5424255 C156.821899,59.5424255 159.494647,60.564344 159.494647,60.564344 L171.82334,60.564344 L171.82334,67.5759661 L169.417363,68.3971017 C169.417363,68.3971017 172.246394,71.2819045 172.246394,77.7835857 C172.246394,88.8244217 163.566806,96.1813032 153.564649,96.1813032 C143.025605,96.1813032 134.647022,88.6865239 134.647022,77.8070916 C134.647022,68.0590063 142.348734,59.5424255 153.478158,59.5424255 Z M153.375943,67.8765552 C147.857797,67.8765552 143.468957,72.2584736 143.468957,77.854033 C143.468957,82.9589198 147.356269,87.8315108 153.533198,87.8315108 C158.760736,87.8315108 163.48736,83.6164276 163.48736,77.8383937 C163.48736,72.3888327 159.200283,67.8765552 153.375943,67.8765552 Z M163.42599,97.6257883 L172.185023,97.6257883 C172.185023,108.666624 163.505438,116 153.503278,116 C142.964236,116 134.585654,108.505221 134.585654,97.6257883 L143.391863,97.6257883 C143.391863,102.730675 147.294898,107.650208 153.471827,107.650208 C158.699368,107.650208 163.42599,103.403846 163.42599,97.6257883 Z M175.723234,95.2218016 L175.723234,60.564344 L184.40364,60.564344 L184.40364,95.2218016 L175.723234,95.2218016 Z M192.832441,95.2218016 L192.832441,68.3272163 L188.177731,68.3272163 L188.177731,60.564344 L192.832441,60.564344 L192.832441,49.9217026 L201.512849,49.9217026 L201.512849,60.564344 L206.293361,60.564344 L206.293361,68.3272163 L201.512849,68.3272163 L201.512849,95.2218016 L192.832441,95.2218016 Z M185.793458,50.7209321 C185.793458,53.8805164 183.21993,56.4418672 180.04532,56.4418672 C176.87071,56.4418672 174.297182,53.8805164 174.297182,50.7209321 C174.297182,47.5613478 176.87071,45 180.04532,45 C183.21993,45 185.793458,47.5613478 185.793458,50.7209321 Z M225.808551,59.5189431 C238.120839,59.5189431 243.641127,69.4807582 243.641127,78.9730653 L243.641127,81.3520009 L216.593481,81.3520009 C217.869263,86.0108622 221.525948,88.5514356 226.099471,88.5514356 C231.585877,88.5514356 235.967145,83.8483487 235.967145,83.8483487 L241.769808,89.6313695 C241.769808,89.6313695 236.566766,96.2047623 225.989393,96.2047623 C214.650429,96.2047623 207.417726,88.536803 207.417726,78.1201125 C207.417726,68.0399956 214.626418,59.5189431 225.808551,59.5189431 Z M225.533359,67.1253049 C220.220037,67.1253049 217.077624,70.7652912 216.357602,74.3403789 L234.536136,74.3403789 C233.621534,69.254456 229.532123,67.1253049 225.533359,67.1253049 Z M265.353445,96.209234 C254.139685,96.209234 246.498791,87.7088778 246.498791,77.6863783 C246.498791,67.3431319 255.134378,59.5124111 265.317438,59.5124111 C275.161607,59.5124111 280.200409,66.428886 280.200409,66.428886 L274.145108,72.4282354 C274.145108,72.4282354 270.637422,67.917667 265.276218,67.917667 C259.334336,67.917667 255.271435,72.4415803 255.271435,77.8190318 C255.271435,83.4970255 259.593316,87.8533076 265.209418,87.8533076 C270.656906,87.8533076 274.136621,83.3499735 274.136621,83.3499735 L280.252549,89.3461388 C280.252549,89.3461388 275.262709,96.209234 265.353445,96.209234 Z M283.410598,95.2468526 L283.410598,45.915058 L292.091007,45.915058 L292.091007,64.0397895 C292.091007,64.0397895 295.41474,59.5124111 302.644887,59.5124111 C311.734165,59.5124111 317,66.237187 317,74.8380049 L317,95.2468526 L308.319585,95.2468526 L308.319585,76.1437494 C308.319585,70.3655515 304.705078,67.9683309 300.700849,67.9683309 C296.138603,67.9683309 292.091007,70.5523808 292.091007,76.5909221 L292.091007,95.2468526 L283.410598,95.2468526 Z" id="Combined-Shape" fill="#000000"></path>
    </g>
</svg>