<?xml version="1.0" encoding="UTF-8"?>
<svg width="400px" height="160px" viewBox="0 0 400 160" version="1.1" xmlns="http://www.w3.org/2000/svg" xmlns:xlink="http://www.w3.org/1999/xlink">
    <!-- Generator: Sketch 55.2 (78181) - https://sketchapp.com -->
    <title>Client Logo / Treatwell</title>
    <desc>Created with Sketch.</desc>
    <g id="Client-Logo-/-Treatwell" stroke="none" stroke-width="1" fill="none" fill-rule="evenodd">
        <path d="M106.279793,81.3009845 L106.279793,81.652602 C108.25285,79.6132208 111.071503,79.0506329 113.819689,79.0506329 C115.581347,79.0506329 116.638342,79.3319269 117.483938,79.6835443 L117.483938,72.2292546 C116.990674,72.0182841 116.215544,71.8776371 115.229016,71.8776371 C110.15544,71.9479606 107.336788,75.323488 106.279793,81.3009845 L106.279793,81.3009845 Z M261.658031,72.580872 C263.278756,75.6751055 264.688083,81.7932489 264.688083,84.8874824 L265.110881,84.8874824 L271.382383,72.580872 L261.658031,72.580872 Z M234.810363,72.580872 L225.015544,72.580872 L238.192746,104.78903 L238.826943,104.78903 L243.759585,94.5218003 L234.810363,72.580872 Z M252.638342,72.580872 L242.843523,72.580872 L256.020725,104.78903 L256.654922,104.78903 L261.587565,94.5218003 L252.638342,72.580872 Z M80.8414508,76.8002813 L89.7202073,76.8002813 L89.7202073,72.5105485 L80.8414508,72.5105485 L80.8414508,76.8002813 Z M211.48601,76.8002813 L220.364767,76.8002813 L220.364767,72.5105485 L211.48601,72.5105485 L211.48601,76.8002813 Z M155.74715,89.5991561 C155.74715,98.3895921 160.750259,104.929677 168.149223,104.929677 C172.518135,104.929677 175.759585,102.327707 177.803109,98.3192686 L177.803109,97.9676512 C176.746114,98.5302391 175.407254,98.95218 173.997927,98.95218 C168.994819,98.8818565 165.401036,94.5921238 165.401036,87.9817159 C165.401036,79.3319269 170.68601,73.4950774 177.662176,73.4950774 L177.662176,73.0028129 C176.182383,72.3699015 174.279793,72.0182841 172.306736,72.0182841 C162.864249,71.9479606 155.74715,79.3319269 155.74715,89.5991561 L155.74715,89.5991561 Z M136.721244,71.9479606 C127.349223,71.9479606 120.373057,78.9803094 120.373057,88.6849508 C120.373057,98.3895921 126.996891,105 136.227979,105 C142.499482,105 147.502591,101.905767 149.898446,96.350211 L149.898446,95.7876231 C147.995855,97.4753868 144.82487,98.3895921 141.58342,98.3895921 C134.395855,98.3895921 129.815544,93.7482419 129.815544,86.0829817 C129.815544,80.4571027 132.352332,74.4092827 136.721244,72.440225 L136.721244,71.9479606 Z M289.703627,71.9479606 C280.331606,71.9479606 273.35544,78.9803094 273.35544,88.6849508 C273.35544,98.3895921 279.979275,105 289.210363,105 C295.411399,105 300.414508,101.905767 302.880829,96.350211 L302.880829,95.7876231 C300.978238,97.4753868 297.807254,98.3895921 294.565803,98.3895921 C287.307772,98.3895921 282.797927,93.8185654 282.797927,86.0829817 C282.797927,80.4571027 285.264249,74.4092827 289.633161,72.440225 L289.633161,71.9479606 L289.703627,71.9479606 Z M132.77513,90.443038 C133.973057,90.7946554 135.45285,91.0759494 137.073575,91.0759494 C144.049741,91.0759494 149.898446,86.3642757 149.898446,80.7383966 C149.898446,75.8157525 145.247668,71.9479606 138.482902,71.8776371 L138.482902,72.2995781 C140.667358,73.4247539 141.160622,76.1673699 141.160622,78.628692 C141.160622,84.8874824 137.284974,89.5991561 132.845596,89.9507736 L132.845596,90.443038 L132.77513,90.443038 Z M285.757513,90.443038 C286.95544,90.7946554 288.505699,91.0759494 290.055959,91.0759494 C297.032124,91.0759494 302.951295,86.3642757 302.951295,80.7383966 C302.951295,75.8157525 298.300518,71.9479606 291.535751,71.8776371 L291.535751,72.2995781 C293.720207,73.4247539 294.213472,76.1673699 294.213472,78.628692 C294.213472,84.8874824 290.337824,89.5991561 285.827979,89.9507736 L285.827979,90.443038 L285.757513,90.443038 Z M104.870466,71.9479606 L95.7803109,72.9324895 L95.7803109,104.296765 L104.870466,104.296765 L104.870466,71.9479606 Z M179.353368,72.9324895 L179.353368,104.296765 L188.443523,104.296765 L188.443523,71.9479606 L179.353368,72.9324895 Z M85.3512953,99.374121 C81.1233161,99.374121 78.5865285,96.5611814 78.5865285,91.9198312 L78.5865285,63.5794655 L77.811399,63.5794655 L64,76.0970464 L64,76.8002813 L69.4963731,76.8002813 L69.4963731,94.5921238 C69.4963731,101.343179 73.653886,104.929677 79.2911917,104.929677 C83.6601036,104.929677 87.042487,102.819972 89.5088083,99.092827 L89.5088083,98.6708861 C88.0290155,99.1631505 86.6901554,99.374121 85.3512953,99.374121 L85.3512953,99.374121 Z M216.066321,99.374121 C211.767876,99.374121 209.231088,96.5611814 209.231088,91.9198312 L209.231088,63.5794655 L208.455959,63.5794655 L194.715026,76.0970464 L194.715026,76.8002813 L200.140933,76.8002813 L200.140933,94.5921238 C200.140933,101.343179 204.298446,104.929677 209.935751,104.929677 C214.304663,104.929677 217.757513,102.819972 220.153368,99.092827 L220.153368,98.6708861 C218.673575,99.1631505 217.405181,99.374121 216.066321,99.374121 L216.066321,99.374121 Z M318.735751,55 L309.57513,56.0548523 L309.57513,104.296765 L318.665285,104.296765 L318.665285,55 L318.735751,55 Z M336,55 L326.839378,56.0548523 L326.839378,104.296765 L336,104.296765 L336,55 Z" id="Shape" fill="#000000"></path>
    </g>
</svg>