<?xml version="1.0" encoding="UTF-8"?>
<svg width="400px" height="160px" viewBox="0 0 400 160" version="1.1" xmlns="http://www.w3.org/2000/svg" xmlns:xlink="http://www.w3.org/1999/xlink">
    <!-- Generator: Sketch 55.2 (78181) - https://sketchapp.com -->
    <title>Client Logo / UEFA</title>
    <desc>Created with Sketch.</desc>
    <g id="Client-Logo-/-UEFA" stroke="none" stroke-width="1" fill="none" fill-rule="evenodd">
        <path d="M198.521472,18.190184 C220.055215,18.190184 239.728016,26.9631902 253.552147,41.3190184 L255.678937,39.192229 C241.05726,24.3047035 220.852761,15 198.255624,15 C175.658487,15 155.719836,24.3047035 141.364008,39.192229 L143.490798,41.3190184 C157.580777,26.9631902 176.98773,18.190184 198.521472,18.190184 L198.521472,18.190184 Z M198.521472,50.8895706 C211.813906,50.8895706 223.511247,56.7382413 231.752556,66.0429448 L234.145194,63.9161554 C225.372188,54.0797546 212.877301,47.6993865 198.521472,47.6993865 C184.165644,47.6993865 171.670757,53.8139059 162.897751,63.9161554 L165.290389,66.0429448 C173.531697,56.7382413 185.229039,50.8895706 198.521472,50.8895706 L198.521472,50.8895706 Z M241.854806,37.0654397 C241.05726,36.2678937 240.259714,36.5337423 239.728016,37.0654397 L222.182004,48.4969325 L225.903885,50.6237219 L238.398773,42.3824131 L236.537832,49.2944785 L234.94274,47.9652352 L231.486708,50.0920245 L235.474438,53.0163599 L234.411043,57.00409 L237.601227,59.9284254 L243.449898,39.9897751 C243.715746,39.192229 243.715746,38.6605317 242.9182,37.8629857 L241.854806,37.0654397 Z M165.290389,50.8895706 C166.353783,50.0920245 167.151329,48.7627812 167.151329,47.6993865 C167.417178,46.3701431 166.885481,45.3067485 165.556237,43.7116564 L158.644172,35.204499 L161.834356,32.8118609 L169.543967,42.1165644 C171.139059,43.9775051 171.670757,46.1042945 171.670757,48.2310838 C171.404908,50.6237219 170.341513,52.4846626 168.214724,54.3456033 C166.087935,55.9406953 163.961145,56.7382413 161.568507,56.4723926 C159.441718,56.206544 157.580777,55.1431493 155.985685,53.2822086 L148.276074,43.9775051 L151.466258,41.5848671 L158.378323,50.0920245 C159.707566,51.6871166 160.505112,52.4846626 162.100204,52.4846626 C162.897751,52.2188139 164.226994,51.6871166 165.290389,50.8895706 L165.290389,50.8895706 Z M182.038855,28.8241309 L182.836401,33.3435583 L191.875256,31.4826176 L192.672802,35.204499 L183.633947,37.0654397 L183.899796,38.6605317 C184.431493,40.7873211 185.229039,41.0531697 187.08998,40.7873211 L194.267894,39.192229 L195.06544,42.9141104 L187.621677,44.5092025 C184.165644,45.3067485 180.97546,44.2433538 180.177914,39.9897751 L177.519427,27.2290389 C177.253579,26.1656442 177.785276,25.6339468 178.582822,25.3680982 L190.811861,22.9754601 L191.609407,26.6973415 L182.038855,28.8241309 Z M208.623722,44.2433538 L206.231084,43.7116564 C205.433538,43.4458078 204.90184,42.9141104 205.167689,41.8507157 L208.357873,29.3558282 C209.421268,25.1022495 212.611452,24.3047035 216.067485,25.1022495 L223.511247,26.9631902 L222.713701,30.6850716 L215.535787,28.8241309 C213.674847,28.2924335 212.877301,28.5582822 212.345603,30.6850716 L211.813906,32.5460123 L220.852761,34.9386503 L219.789366,38.6605317 L210.750511,36.2678937 L208.623722,44.2433538 Z M260.198364,122.402863 L260.198364,122.402863 L260.198364,141.809816 C260.198364,142.873211 259.666667,143.404908 258.603272,143.404908 L258.603272,144.468303 L278.276074,144.468303 C278.276074,142.341513 278.276074,140.480573 278.807771,137.290389 L277.478528,137.290389 C276.94683,140.480573 276.149284,141.01227 274.288344,141.01227 L265.781186,141.01227 L265.781186,133.03681 L270.832311,133.03681 C272.427403,133.03681 272.693252,133.568507 272.9591,134.897751 L274.022495,134.897751 C274.022495,134.100204 273.756646,132.239264 273.756646,131.441718 C273.756646,130.378323 273.756646,128.783231 274.022495,127.985685 L272.9591,127.985685 C272.693252,129.314928 272.427403,129.846626 270.832311,129.846626 L265.781186,129.846626 L265.781186,122.668712 L273.756646,122.668712 C275.883436,122.668712 276.415133,123.466258 276.680982,125.327198 L277.744376,125.327198 C277.478528,123.200409 277.478528,121.605317 277.478528,119.478528 L258.603272,119.478528 L258.603272,120.541922 C259.666667,121.07362 260.198364,121.605317 260.198364,122.402863 L260.198364,122.402863 Z M230.157464,122.402863 L230.157464,122.402863 L230.157464,136.226994 C230.157464,142.607362 233.613497,144.734151 240.525562,144.734151 C247.171779,144.734151 250.893661,142.607362 250.893661,135.695297 L250.893661,122.402863 C250.893661,121.339468 251.425358,120.807771 252.488753,120.807771 L252.488753,119.744376 C251.159509,119.744376 249.830266,120.010225 248.235174,120.010225 C246.374233,120.010225 244.779141,120.010225 243.184049,119.744376 L243.184049,120.807771 C244.779141,120.807771 245.310838,121.07362 245.310838,122.668712 L245.310838,136.492843 C245.310838,140.746421 243.449898,141.543967 240.525562,141.543967 C237.601227,141.543967 235.740286,140.746421 235.740286,136.492843 L235.740286,122.668712 C235.740286,121.339468 236.271984,120.807771 237.867076,120.807771 L237.867076,119.744376 C236.271984,119.744376 234.94274,120.010225 232.815951,120.010225 C231.220859,120.010225 229.625767,120.010225 228.562372,119.744376 L228.562372,120.807771 C229.625767,120.807771 230.157464,121.339468 230.157464,122.402863 L230.157464,122.402863 Z M215.269939,135.695297 L215.269939,135.695297 L215.269939,138.353783 C215.269939,139.948875 213.940695,141.278119 211.282209,141.278119 C207.02863,141.278119 204.370143,135.961145 204.370143,131.441718 C204.370143,126.656442 207.02863,122.668712 212.079755,122.668712 C215.269939,122.668712 218.194274,124.263804 218.725971,127.719836 L219.789366,127.719836 C219.523517,125.06135 219.523517,122.93456 219.523517,121.339468 C217.396728,120.010225 214.738241,119.478528 212.079755,119.478528 C204.104294,119.478528 198.521472,124.263804 198.521472,132.505112 C198.521472,139.151329 203.0409,145 209.952965,145 C212.611452,145 215.00409,144.202454 217.396728,142.075665 L218.194274,144.468303 L220.321063,144.468303 L220.321063,136.226994 C220.321063,134.631902 221.118609,134.100204 222.182004,134.100204 L222.182004,133.03681 C220.586912,133.03681 218.99182,133.302658 217.130879,133.302658 C215.535787,133.302658 213.940695,133.302658 212.611452,133.03681 L212.611452,134.366053 C214.738241,134.100204 215.269939,134.100204 215.269939,135.695297 L215.269939,135.695297 Z M185.229039,133.834356 L185.229039,133.834356 L179.912065,133.834356 C180.97546,131.175869 182.038855,128.251534 182.836401,125.327198 L182.836401,125.327198 C183.899796,129.04908 184.431493,131.175869 185.229039,133.834356 L185.229039,133.834356 Z M170.873211,143.404908 L170.873211,143.404908 L170.873211,144.468303 C172.202454,144.468303 173.531697,144.202454 174.860941,144.202454 C176.190184,144.202454 177.519427,144.202454 178.582822,144.468303 L178.582822,143.404908 C177.253579,143.404908 176.721881,142.873211 176.721881,142.341513 C176.721881,142.075665 176.721881,141.543967 176.98773,141.01227 L178.582822,136.758691 L185.760736,136.758691 L186.824131,140.480573 C187.08998,141.01227 187.08998,141.809816 187.08998,142.341513 C187.08998,143.139059 186.558282,143.404908 185.229039,143.670757 L185.229039,144.734151 C186.824131,144.734151 188.419223,144.468303 190.014315,144.468303 C191.609407,144.468303 193.204499,144.468303 194.799591,144.734151 L194.799591,143.670757 C193.736196,143.404908 193.204499,142.873211 192.672802,141.278119 L185.760736,120.010225 C184.697342,120.010225 183.368098,120.276074 182.304703,120.276074 C181.241309,120.276074 179.912065,120.276074 178.848671,120.010225 L178.848671,121.07362 C179.912065,121.07362 180.177914,121.605317 180.177914,122.137014 C180.177914,122.402863 179.912065,122.93456 179.646217,123.466258 L172.468303,141.809816 C172.468303,142.607362 171.936605,143.139059 170.873211,143.404908 L170.873211,143.404908 Z M148.010225,122.402863 L148.010225,122.402863 L148.010225,141.809816 C148.010225,142.873211 147.478528,143.404908 146.415133,143.404908 L146.415133,144.468303 L166.087935,144.468303 C166.087935,142.341513 166.087935,140.480573 166.619632,137.290389 L165.290389,137.290389 C164.758691,140.480573 163.961145,141.01227 162.100204,141.01227 L153.593047,141.01227 L153.593047,133.302658 L158.644172,133.302658 C160.239264,133.302658 160.505112,133.834356 160.770961,135.163599 L161.834356,135.163599 C161.834356,134.366053 161.568507,132.505112 161.568507,131.707566 C161.568507,130.644172 161.568507,129.04908 161.834356,128.251534 L160.770961,128.251534 C160.505112,129.580777 160.239264,130.112474 158.644172,130.112474 L153.593047,130.112474 L153.593047,122.93456 L161.568507,122.93456 C163.695297,122.93456 164.226994,123.732106 164.492843,125.593047 L165.556237,125.593047 C165.290389,123.466258 165.290389,121.871166 165.290389,119.744376 L146.415133,119.744376 L146.415133,120.807771 C147.744376,121.07362 148.010225,121.605317 148.010225,122.402863 L148.010225,122.402863 Z M124.349693,122.402863 L124.349693,122.402863 L124.349693,141.809816 C124.349693,142.873211 123.817996,143.404908 122.754601,143.404908 L122.754601,144.468303 L141.364008,144.468303 C141.364008,142.075665 141.895706,139.683027 142.161554,137.290389 L140.832311,137.290389 C140.300613,140.214724 139.237219,141.278119 136.844581,141.278119 L129.932515,141.278119 L129.932515,122.93456 C129.932515,121.871166 130.198364,121.07362 132.059305,120.807771 L132.059305,119.744376 C130.99591,119.744376 128.603272,120.010225 127.274029,120.010225 C125.944785,120.010225 124.349693,120.010225 122.754601,119.744376 L122.754601,120.807771 C123.817996,120.807771 124.349693,121.339468 124.349693,122.402863 L124.349693,122.402863 Z M72.2433538,103.261759 L72.2433538,103.261759 L72.7750511,97.1472393 C69.8507157,99.5398773 65.597137,101.134969 62.6728016,101.134969 C55.7607362,101.134969 50.7096115,94.2229039 50.7096115,88.1083845 C50.7096115,80.1329243 55.4948875,75.3476483 61.3435583,75.3476483 C65.8629857,75.3476483 69.0531697,77.7402863 69.8507157,82.2597137 L71.1799591,82.2597137 C70.9141104,78.803681 70.6482618,75.3476483 70.6482618,71.6257669 C69.3190184,71.0940695 66.394683,70.2965235 61.8752556,70.2965235 C49.3803681,70.2965235 43,79.3353783 43,88.6400818 C43,97.6789366 49.3803681,106.717791 61.0777096,106.717791 C64.002045,106.717791 68.7873211,105.654397 72.2433538,103.261759 L72.2433538,103.261759 Z M157.314928,80.9304703 L157.314928,80.9304703 L156.251534,101.134969 C156.251534,103.261759 155.453988,103.527607 153.593047,103.793456 L153.593047,105.122699 C155.188139,104.856851 156.783231,104.856851 158.644172,104.856851 C160.505112,104.856851 162.366053,105.122699 164.226994,105.122699 L164.226994,103.793456 C161.302658,103.527607 161.03681,102.99591 161.03681,100.603272 C161.03681,99.2740286 161.03681,97.9447853 161.302658,95.5521472 L161.568507,81.4621677 L161.568507,81.4621677 L170.873211,105.388548 L174.860941,105.388548 L182.836401,81.7280164 L182.836401,81.7280164 L183.899796,96.0838446 C184.165644,97.6789366 184.165644,99.805726 184.165644,101.134969 C184.165644,103.261759 183.633947,103.793456 181.241309,104.059305 L181.241309,105.388548 C183.102249,105.122699 185.229039,105.122699 187.355828,105.122699 C189.482618,105.122699 191.609407,105.388548 193.736196,105.388548 L193.736196,104.059305 C192.672802,103.793456 191.343558,103.793456 191.343558,102.464213 L189.748466,81.7280164 C189.482618,80.1329243 189.482618,78.006135 189.482618,76.6768916 C189.482618,75.3476483 189.748466,74.8159509 191.343558,74.8159509 L191.343558,73.2208589 C189.748466,73.4867076 187.887526,73.4867076 186.292434,73.4867076 C184.697342,73.4867076 182.836401,73.2208589 181.241309,73.2208589 L173.797546,95.5521472 L165.556237,73.2208589 C163.695297,73.4867076 162.100204,73.4867076 160.239264,73.4867076 C158.378323,73.4867076 156.783231,73.2208589 155.188139,73.2208589 L155.188139,74.5501022 C157.04908,74.8159509 157.314928,75.0817996 157.314928,76.4110429 C157.580777,78.2719836 157.314928,79.601227 157.314928,80.9304703 L157.314928,80.9304703 Z M116.108384,104.856851 L116.108384,104.856851 L116.108384,103.527607 C117.437628,103.261759 118.235174,102.464213 118.501022,101.400818 L128.071575,77.4744376 C128.337423,76.6768916 128.603272,76.1451943 128.603272,75.6134969 C128.603272,75.0817996 128.071575,74.2842536 126.742331,74.2842536 L126.742331,73.2208589 C128.337423,73.4867076 129.666667,73.4867076 131.261759,73.4867076 C132.856851,73.4867076 134.186094,73.2208589 135.781186,73.2208589 L144.554192,100.603272 C145.351738,102.730061 145.883436,103.261759 147.478528,103.793456 L147.478528,105.122699 C145.351738,104.856851 143.490798,104.856851 141.364008,104.856851 C139.237219,104.856851 137.110429,105.122699 135.249489,105.122699 L135.249489,103.793456 C137.110429,103.527607 137.642127,102.99591 137.642127,101.932515 C137.642127,101.134969 137.376278,100.071575 137.110429,99.5398773 L135.515337,94.7546012 L126.210634,94.7546012 L124.083845,100.337423 C123.817996,101.134969 123.817996,101.666667 123.817996,101.932515 C123.817996,102.730061 124.615542,103.261759 126.210634,103.527607 L126.210634,104.856851 C124.615542,104.591002 122.754601,104.591002 121.159509,104.591002 C119.298569,104.591002 117.703476,104.856851 116.108384,104.856851 L116.108384,104.856851 Z M127.539877,91.0327198 L127.539877,91.0327198 L134.451943,91.0327198 C133.388548,87.8425358 132.591002,84.9182004 131.527607,79.8670757 L131.527607,79.8670757 C130.464213,83.8548057 128.869121,87.8425358 127.539877,91.0327198 L127.539877,91.0327198 Z M81.5480573,76.4110429 L81.5480573,76.4110429 L81.5480573,101.666667 C81.5480573,102.99591 81.0163599,103.527607 79.4212679,103.793456 L79.4212679,105.122699 C81.5480573,104.856851 83.408998,104.856851 85.2699387,104.856851 C87.1308793,104.856851 88.99182,105.122699 91.1186094,105.122699 L91.1186094,103.793456 C89.5235174,103.793456 88.99182,102.99591 88.99182,101.666667 L88.99182,90.5010225 L100.689162,90.5010225 L100.689162,101.666667 C100.689162,102.99591 100.157464,103.527607 98.5623722,103.793456 L98.5623722,105.122699 C100.689162,104.856851 102.550102,104.856851 104.411043,104.856851 C106.271984,104.856851 108.132924,105.122699 110.259714,105.122699 L110.259714,103.793456 C108.664622,103.793456 108.132924,102.99591 108.132924,101.666667 L108.132924,76.4110429 C108.132924,75.0817996 108.664622,74.5501022 110.259714,74.2842536 L110.259714,73.2208589 C108.132924,73.4867076 106.271984,73.4867076 104.411043,73.4867076 C102.550102,73.4867076 100.689162,73.2208589 98.5623722,73.2208589 L98.5623722,74.5501022 C100.157464,74.5501022 100.689162,75.3476483 100.689162,76.6768916 L100.689162,86.2474438 L88.99182,86.2474438 L88.99182,76.6768916 C88.99182,75.3476483 89.5235174,74.8159509 91.1186094,74.5501022 L91.1186094,73.2208589 C88.99182,73.4867076 87.1308793,73.4867076 85.2699387,73.4867076 C83.408998,73.4867076 81.5480573,73.2208589 79.4212679,73.2208589 L79.4212679,74.5501022 C81.0163599,74.5501022 81.5480573,75.0817996 81.5480573,76.4110429 L81.5480573,76.4110429 Z M332.509202,93.9570552 L332.509202,93.9570552 L331.179959,93.9570552 C331.445808,96.8813906 331.445808,100.337423 331.445808,104.059305 C334.90184,105.122699 338.623722,105.920245 342.345603,105.920245 C350.321063,105.920245 356.96728,102.464213 356.96728,95.8179959 C356.96728,89.4376278 352.182004,87.5766871 347.396728,85.9815951 L342.079755,84.3865031 C339.952965,83.8548057 337.560327,83.0572597 337.560327,80.1329243 C337.560327,76.6768916 341.813906,75.8793456 344.206544,75.8793456 C348.725971,75.8793456 352.447853,78.006135 353.511247,82.5255624 L354.840491,82.5255624 C354.574642,79.8670757 354.574642,76.9427403 354.574642,73.2208589 C351.650307,72.1574642 348.460123,71.6257669 345.269939,71.6257669 C337.826176,71.6257669 330.382413,74.0184049 330.382413,81.7280164 C330.382413,87.5766871 335.433538,89.7034765 340.484663,91.2985685 L343.940695,92.3619632 C346.333333,93.1595092 349.257669,93.9570552 349.257669,96.8813906 C349.257669,100.603272 345.00409,101.400818 342.079755,101.400818 C337.02863,101.932515 333.572597,99.2740286 332.509202,93.9570552 L332.509202,93.9570552 Z M295.02454,76.4110429 L295.02454,76.4110429 L295.02454,101.666667 C295.02454,102.99591 294.492843,103.527607 292.897751,103.793456 L292.897751,105.122699 C294.492843,104.856851 296.087935,104.856851 297.683027,104.856851 C299.278119,104.856851 300.607362,105.122699 302.202454,105.122699 L302.202454,103.793456 C300.873211,103.793456 299.278119,103.527607 299.278119,101.134969 L299.278119,80.1329243 L299.278119,80.1329243 L315.229039,105.122699 L320.280164,105.122699 L320.280164,76.4110429 C320.280164,75.0817996 320.811861,74.5501022 322.406953,74.2842536 L322.406953,73.2208589 C320.811861,73.4867076 319.216769,73.4867076 317.621677,73.4867076 C316.026585,73.4867076 314.697342,73.2208589 313.102249,73.2208589 L313.102249,74.5501022 C314.431493,74.5501022 316.026585,74.8159509 316.026585,77.208589 L316.026585,94.7546012 L316.026585,94.7546012 L302.734151,73.2208589 C301.139059,73.4867076 299.809816,73.4867076 298.480573,73.4867076 C296.619632,73.4867076 294.758691,73.2208589 292.631902,73.2208589 L292.631902,74.5501022 C294.492843,74.5501022 295.02454,75.0817996 295.02454,76.4110429 L295.02454,76.4110429 Z M236.803681,76.4110429 L236.803681,76.4110429 L236.803681,101.666667 C236.803681,102.99591 236.271984,103.527607 234.676892,103.793456 L234.676892,105.122699 C236.803681,104.856851 238.664622,104.856851 240.525562,104.856851 C242.386503,104.856851 244.247444,105.122699 246.374233,105.122699 L246.374233,103.793456 C244.779141,103.793456 244.247444,102.99591 244.247444,101.666667 L244.247444,76.4110429 C244.247444,75.0817996 244.779141,74.5501022 246.374233,74.2842536 L246.374233,73.2208589 C244.247444,73.4867076 242.386503,73.4867076 240.525562,73.4867076 C238.664622,73.4867076 236.803681,73.2208589 234.676892,73.2208589 L234.676892,74.5501022 C236.271984,74.5501022 236.803681,75.0817996 236.803681,76.4110429 L236.803681,76.4110429 Z M210.484663,100.869121 L210.484663,100.869121 L210.484663,78.006135 L213.408998,77.7402863 C217.662577,77.7402863 220.321063,79.3353783 220.321063,83.5889571 C220.321063,87.5766871 218.460123,90.5010225 213.408998,90.5010225 C212.877301,90.5010225 212.079755,90.2351738 211.813906,90.2351738 C211.282209,90.2351738 211.01636,90.2351738 211.01636,90.7668712 C211.01636,91.8302658 214.472393,92.8936605 216.865031,92.8936605 C222.97955,92.8936605 227.498978,89.1717791 227.498978,83.3231084 C227.498978,77.7402863 224.308793,73.4867076 215.269939,73.4867076 L200.91411,73.4867076 L200.91411,74.8159509 C202.509202,74.8159509 203.0409,75.6134969 203.0409,76.9427403 L203.0409,100.603272 C203.0409,102.99591 202.775051,103.793456 200.91411,104.059305 L200.91411,105.388548 C203.0409,105.122699 204.90184,105.122699 206.762781,105.122699 C208.623722,105.122699 210.484663,105.388548 213.408998,105.388548 L213.408998,104.059305 C210.750511,103.261759 210.484663,102.730061 210.484663,100.869121 L210.484663,100.869121 Z M268.705521,77.4744376 L268.705521,77.4744376 C275.883436,77.4744376 278.010225,85.7157464 278.010225,91.2985685 C278.010225,96.6155419 275.08589,100.869121 270.300613,100.869121 C263.388548,100.869121 260.99591,92.6278119 260.99591,87.0449898 C260.99591,83.0572597 262.856851,77.4744376 268.705521,77.4744376 L268.705521,77.4744376 Z M269.237219,105.388548 L269.237219,105.388548 C278.010225,105.388548 285.188139,99.2740286 285.188139,89.1717791 C285.188139,80.6646217 279.339468,72.6891616 269.503067,72.6891616 C260.730061,72.6891616 253.817996,79.3353783 253.817996,88.3742331 C253.817996,97.4130879 259.666667,105.388548 269.237219,105.388548 L269.237219,105.388548 Z" id="path18" fill="#000000"></path>
    </g>
</svg>